<?xml version="1.0" encoding="UTF-8" standalone="no"?><!DOCTYPE svg PUBLIC "-//W3C//DTD SVG 1.1//EN" "http://www.w3.org/Graphics/SVG/1.1/DTD/svg11.dtd"><svg width="100%" height="100%" viewBox="0 0 1920 1080" version="1.1" xmlns="http://www.w3.org/2000/svg" xmlns:xlink="http://www.w3.org/1999/xlink" xml:space="preserve" xmlns:serif="http://www.serif.com/" style="fill-rule:evenodd;clip-rule:evenodd;stroke-linejoin:round;stroke-miterlimit:10;"><rect x="0" y="0" width="1920" height="1080" style="fill:#fcf0e3;"/><g><path d="M1453.2,436c5.1,-12.7 10.5,-26.2 13.2,-34.8c7.2,-22.7 33.5,-11.2 25.3,12.3c-4.9,14 -9.4,25.4 -12.3,32.4c-2,4.7 -5.5,8.6 -9.9,11l-10,5.4c-7.6,4.1 -17,3.5 -23.9,-1.7c-6.9,-5.1 -10.2,-13.7 -8.6,-22.1l2.6,-13.1l23.6,10.6" style="fill:#f36b7f;fill-rule:nonzero;"/><path d="M1429.3,424c5.1,-12.7 10.5,-26.2 13.2,-34.8c7.2,-22.7 33.5,-11.2 25.3,12.3c-4.9,14 -9.4,25.4 -12.3,32.4c-2,4.7 -5.5,8.6 -9.9,11l-10,5.4c-7.6,4.1 -17,3.5 -23.9,-1.7c-6.9,-5.1 -10.2,-13.7 -8.6,-22.1l2.6,-13.1l23.6,10.6" style="fill:#f36b7f;fill-rule:nonzero;"/><path d="M1398.4,399.3c5.1,-12.7 17.8,-10.8 20.5,-19.3c7.2,-22.7 33.5,-11.2 25.3,12.3c-4.9,14 -9.4,25.4 -12.3,32.4c-2,4.7 -5.5,8.6 -9.9,11l-10,5.4c-7.6,4.1 -17,3.5 -23.9,-1.7c-6.9,-5.1 -11.5,-14.5 -9.9,-22.9l3.9,-12.4l16.3,-4.8Z" style="fill:#f36b7f;fill-rule:nonzero;"/><path d="M1453.2,436c5.1,-29.9 28.4,-30.8 45.2,-40.3c11.1,-6.3 16.9,-22.9 11.9,-36.4l-73.1,-17.7c0,0 -10,8.1 -29.6,26.9c-8.2,7.9 -18,21.7 -25.5,35.7l71.1,31.8Z" style="fill:#f36b7f;fill-rule:nonzero;"/><path d="M1453.2,436c5.1,-29.9 28.4,-30.8 45.2,-40.3" style="fill:none;stroke:#2b292d;stroke-width:2.36px;"/></g><circle cx="1271.5" cy="120.6" r="27.8" style="fill:#f8cf61;"/><rect x="1204.2" y="113.8" width="51.9" height="79.6" style="fill:#f36b7f;"/><g><path id="XMLID_68_" d="M1534.6,169.9c-10.7,-12.2 -26.3,-19.1 -42.5,-18.8l-232.3,4.7c-10.3,-3.5 -21.5,-4.7 -33,-3c-15.3,2.2 -28.9,9.1 -39.4,19.2c-3,2.3 -5.8,5 -8.3,8l-122.1,144l-89.6,-22.8c-29.4,-7.5 -59.4,10.3 -66.9,39.7c-7.5,29.4 10.3,59.4 39.7,66.9l123,31.3c4.5,1.1 9.1,1.7 13.6,1.7c15.9,0 31.4,-6.9 42,-19.5l91.2,-107.7l122.1,-14.6c-1.5,-12.3 -5.5,-23.7 -11.5,-33.7c-0.1,-0.2 -0.3,-0.5 -0.4,-0.7l108.8,-2.2l-13.9,90.1l108.7,16.8l23.9,-154.8c2.4,-16 -2.4,-32.4 -13.1,-44.6Z" style="fill:#fff;fill-rule:nonzero;"/><g><clipPath id="_clip1"><path d="M1534.6,169.9c-10.7,-12.2 -26.3,-19.1 -42.5,-18.8l-232.3,4.7c-10.3,-3.5 -21.5,-4.7 -33,-3c-15.3,2.2 -28.9,9.1 -39.4,19.2c-3,2.3 -5.8,5 -8.3,8l-122.1,144l-89.6,-22.8c-29.4,-7.5 -59.4,10.3 -66.9,39.7c-7.5,29.4 10.3,59.4 39.7,66.9l123,31.3c4.5,1.1 9.1,1.7 13.6,1.7c15.9,0 31.4,-6.9 42,-19.5l91.2,-107.7l122.1,-14.6c-1.5,-12.3 -5.5,-23.7 -11.5,-33.7c-0.1,-0.2 -0.3,-0.5 -0.4,-0.7l108.8,-2.2l-13.9,90.1l108.7,16.8l23.9,-154.8c2.4,-16 -2.4,-32.4 -13.1,-44.6Z"/></clipPath><g clip-path="url(#_clip1)"><path d="M838.6,514.4l912.4,0" style="fill:#fff;fill-rule:nonzero;stroke:#9fbfff;stroke-width:3px;"/><path d="M838.6,482.4l912.4,0" style="fill:#fff;fill-rule:nonzero;stroke:#9fbfff;stroke-width:3px;"/><path d="M838.6,450.4l912.4,0" style="fill:#fff;fill-rule:nonzero;stroke:#9fbfff;stroke-width:3px;"/><path d="M838.6,418.4l912.4,0" style="fill:#fff;fill-rule:nonzero;stroke:#9fbfff;stroke-width:3px;"/><path d="M838.6,386.4l912.4,0" style="fill:#fff;fill-rule:nonzero;stroke:#9fbfff;stroke-width:3px;"/><path d="M838.6,354.4l912.4,0" style="fill:#fff;fill-rule:nonzero;stroke:#9fbfff;stroke-width:3px;"/><path d="M838.6,322.4l912.4,0" style="fill:#fff;fill-rule:nonzero;stroke:#9fbfff;stroke-width:3px;"/><path d="M838.6,290.4l912.4,0" style="fill:#fff;fill-rule:nonzero;stroke:#9fbfff;stroke-width:3px;"/><path d="M838.6,258.4l912.4,0" style="fill:#fff;fill-rule:nonzero;stroke:#9fbfff;stroke-width:3px;"/><path d="M838.6,226.4l912.4,0" style="fill:#fff;fill-rule:nonzero;stroke:#9fbfff;stroke-width:3px;"/><path d="M838.6,194.4l912.4,0" style="fill:#fff;fill-rule:nonzero;stroke:#9fbfff;stroke-width:3px;"/><path d="M838.6,162.4l912.4,0" style="fill:#fff;fill-rule:nonzero;stroke:#9fbfff;stroke-width:3px;"/><path d="M838.6,130.4l912.4,0" style="fill:#fff;fill-rule:nonzero;stroke:#9fbfff;stroke-width:3px;"/><path d="M860.8,538.4l0,-438" style="fill:#fff;fill-rule:nonzero;stroke:#9fbfff;stroke-width:3px;"/><path d="M895.2,538.4l0,-438" style="fill:#fff;fill-rule:nonzero;stroke:#9fbfff;stroke-width:3px;"/><path d="M929.6,538.4l0,-438" style="fill:#fff;fill-rule:nonzero;stroke:#9fbfff;stroke-width:3px;"/><path d="M964,538.4l0,-438" style="fill:#fff;fill-rule:nonzero;stroke:#9fbfff;stroke-width:3px;"/><path d="M998.4,538.4l0,-438" style="fill:#fff;fill-rule:nonzero;stroke:#9fbfff;stroke-width:3px;"/><path d="M1032.8,538.4l0,-438" style="fill:#fff;fill-rule:nonzero;stroke:#9fbfff;stroke-width:3px;"/><path d="M1067.2,538.4l0,-438" style="fill:#fff;fill-rule:nonzero;stroke:#9fbfff;stroke-width:3px;"/><path d="M1101.6,538.4l0,-438" style="fill:#fff;fill-rule:nonzero;stroke:#9fbfff;stroke-width:3px;"/><path d="M1136,538.4l0,-438" style="fill:#fff;fill-rule:nonzero;stroke:#9fbfff;stroke-width:3px;"/><path d="M1170.5,538.4l0,-438" style="fill:#fff;fill-rule:nonzero;stroke:#9fbfff;stroke-width:3px;"/><path d="M1204.9,538.4l0,-438" style="fill:#fff;fill-rule:nonzero;stroke:#9fbfff;stroke-width:3px;"/><path d="M1239.3,538.4l0,-438" style="fill:#fff;fill-rule:nonzero;stroke:#9fbfff;stroke-width:3px;"/><path d="M1273.7,538.4l0,-438" style="fill:#fff;fill-rule:nonzero;stroke:#9fbfff;stroke-width:3px;"/><path d="M1308.1,538.4l0,-438" style="fill:#fff;fill-rule:nonzero;stroke:#9fbfff;stroke-width:3px;"/><path d="M1342.5,538.4l0,-438" style="fill:#fff;fill-rule:nonzero;stroke:#9fbfff;stroke-width:3px;"/><path d="M1376.9,538.4l0,-438" style="fill:#fff;fill-rule:nonzero;stroke:#9fbfff;stroke-width:3px;"/><path d="M1411.3,538.4l0,-438" style="fill:#fff;fill-rule:nonzero;stroke:#9fbfff;stroke-width:3px;"/><path d="M1445.7,538.4l0,-438" style="fill:#fff;fill-rule:nonzero;stroke:#9fbfff;stroke-width:3px;"/><path d="M1480.1,538.4l0,-438" style="fill:#fff;fill-rule:nonzero;stroke:#9fbfff;stroke-width:3px;"/><path d="M1514.5,538.4l0,-438" style="fill:#fff;fill-rule:nonzero;stroke:#9fbfff;stroke-width:3px;"/><path d="M1549,538.4l0,-438" style="fill:#fff;fill-rule:nonzero;stroke:#9fbfff;stroke-width:3px;"/><path d="M1583.4,538.4l0,-438" style="fill:#fff;fill-rule:nonzero;stroke:#9fbfff;stroke-width:3px;"/><path d="M1617.8,538.4l0,-438" style="fill:#fff;fill-rule:nonzero;stroke:#9fbfff;stroke-width:3px;"/><path d="M1652.2,538.4l0,-438" style="fill:#fff;fill-rule:nonzero;stroke:#9fbfff;stroke-width:3px;"/><path d="M1686.6,538.4l0,-438" style="fill:#fff;fill-rule:nonzero;stroke:#9fbfff;stroke-width:3px;"/><path d="M1721,538.4l0,-438" style="fill:#fff;fill-rule:nonzero;stroke:#9fbfff;stroke-width:3px;"/></g></g></g><g><path d="M320.9,396.4l-32,-62.9l-13.9,29.3c-7.3,18.4 17,46 17,46" style="fill:#f36b7f;fill-rule:nonzero;"/><path d="M259.3,407.7l-30.9,-10.9c-4.8,-1.7 -9.5,2.9 -7.9,7.7c0.6,1.8 2,3.2 3.8,3.9l10,3.5l-8.5,1.4c-5,0.8 -7,7 -3.3,10.5c1.4,1.3 3.3,1.9 5.2,1.6l57.5,-9.1l-25.9,-8.6Z" style="fill:#f36b7f;fill-rule:nonzero;"/><path d="M349.7,400.2l23.6,2.3l-23.1,9.3l-0.5,-11.6Z" style="fill:#f36b7f;fill-rule:nonzero;"/><path d="M339.2,422c-4.3,1.9 -7.8,5.2 -10.3,9.2c-2.8,4.5 -6.4,8.2 -10.5,11c-15.1,10.6 -35.8,7.9 -48.5,-5.5l-14.9,-15.8l44.7,-28.8c5.3,-2 10.1,-5 14.4,-8.8c7.9,-7 20,-8 29.2,-1.3c4.6,3.4 7.7,8.2 8.9,13.5c1.2,5.2 0.7,10.9 -1.9,15.9c-2.6,4.9 -6.5,8.5 -11.1,10.6Z" style="fill:#fff;fill-rule:nonzero;"/><circle cx="337.4" cy="403.2" r="6" style="fill:#2b292d;"/><path d="M299.7,392.1l-55.8,-43.2l0,32.4c1.3,19.8 35,34.3 35,34.3c12.1,7.9 28,7.2 39.2,-2c0.9,-0.7 1.5,-1.3 1.8,-1.7c1.6,-2.6 2.3,-5.9 1.6,-9.1c-0.7,-3.2 -0.2,-6.6 1.5,-9.4c0.3,-0.4 0.5,-0.8 0.8,-1.2c3.6,-5.7 11.2,-7.5 16.9,-3.9l11.5,7.2c-1.2,-5.3 -4.3,-10.2 -8.9,-13.5c-9.1,-6.7 -21.2,-5.7 -29.2,1.3c-4.2,3.8 -9,6.8 -14.4,8.8" style="fill:#f36b7f;fill-rule:nonzero;"/><path d="M243.9,348.9l0,12.3c0,10.1 5.4,19.4 14.1,24.5l12.2,7.1c9.2,5.4 20.6,5.1 29.6,-0.7l-55.9,-43.2Z" style="fill:#f8cf61;fill-rule:nonzero;"/></g><path d="M1641.8,775.1c11.5,36 62.6,77.5 123.7,63c27.1,-6.4 53.3,12.7 61.8,39.4l-141.1,56.9l-111.8,-43.6l31.1,76.1l-38.5,15.6l-61.5,-152l136.3,-55.4Z" style="fill:#82b5a5;fill-rule:nonzero;"/><path d="M1188.1,818.1c2.8,37.7 -6.5,95.3 -68.6,104.7c-27.5,4.2 -44.7,31.7 -42.6,59.7l156.6,0.1l60.3,-82.2l-0.4,82.2l41.6,0l0.2,-164l-147.1,-0.5Z" style="fill:#82b5a5;fill-rule:nonzero;"/><g><circle cx="1178.4" cy="111" r="27.8" style="fill:#f8cf61;"/><circle cx="1138.6" cy="152.4" r="33.6" style="fill:#f8cf61;"/><circle cx="1092.7" cy="197.9" r="37.8" style="fill:#f8cf61;"/><circle cx="1042" cy="250" r="42.1" style="fill:#f8cf61;"/><path d="M1057.1,210.7l23.9,23.2" style="fill:none;stroke:#2b292d;stroke-width:3px;"/><path d="M1106.6,162.8l21.3,21.6" style="fill:none;stroke:#2b292d;stroke-width:3px;"/><path d="M1152.8,122l15.9,15.1" style="fill:none;stroke:#2b292d;stroke-width:3px;"/></g><path d="M904.822,347.865c2.434,-23.162 20.586,-40.268 40.511,-38.174c19.924,2.093 34.124,22.598 31.69,45.761c-2.434,23.163 -20.586,40.268 -40.51,38.175c-19.925,-2.094 -34.125,-22.599 -31.691,-45.762Z" style="fill:#f36b7f;"/><path id="XMLID_67_" d="M1281.9,593.2l53.1,-234.6l-15.8,-3.6c10.3,-16.1 15.2,-35.8 12.7,-56.3c-5.8,-46.8 -175.2,-25.9 -169.4,20.9l-61.2,256c-3.3,14.6 -2.9,29.8 1.1,44.2l69.9,249.3l173.3,-48.6l-63.7,-227.3Z" style="fill:#3040c4;fill-rule:nonzero;"/><path d="M1284.6,238.9l-9.2,-83.2" style="fill:none;stroke:#3040c4;stroke-width:3px;"/><path d="M1190.8,246l-2.1,-75.4" style="fill:none;stroke:#3040c4;stroke-width:3px;"/><path d="M1162,319.4c-1.4,-11.9 -0.3,-23.6 2.9,-34.5c4.3,-14.6 5,-30 1.7,-44.9c-0.8,-3.3 -1.3,-6.7 -1.6,-10.2" style="fill:none;stroke:#2b292d;stroke-width:3px;"/><path d="M1308.3,215.6c0.3,2.5 0.5,4.9 0.5,7.4c0.3,14.9 4,29.6 11.7,42.4" style="fill:none;stroke:#2b292d;stroke-width:3px;"/><path d="M1254.3,173.5c-3.8,9.6 -13.1,16.4 -24.1,16.4c-14.3,0 -25.8,-11.6 -25.8,-25.9l-0.2,-13.3c7.9,-4.5 16.9,-6.3 28.2,-6.6c8.6,-0.2 17.1,6.8 23.8,9.3l-0.2,10.6c0,3.5 -0.6,6.6 -1.7,9.5Z" style="fill:#f36b7f;fill-rule:nonzero;"/><rect x="99.9" y="979.5" width="1716.9" height="3" style="fill:#3f233f;"/><g><path d="M1186.2,99.9c0,24.3 19.7,44 44,44c24.3,0 44,-19.7 44,-44c0,-9.2 -2.8,-17.7 -7.6,-24.8c3,-5.8 4.8,-12.3 4.8,-19.3c0,-22.7 -18.4,-41.2 -41.2,-41.2c-22.8,0 -41.2,18.4 -41.2,41.2c0,7 1.7,13.5 4.8,19.3c-4.8,7.1 -7.6,15.6 -7.6,24.8Z" style="fill:#f36b7f;fill-rule:nonzero;"/><path d="M1204.2,135.5c7.3,5.3 16.3,8.5 26,8.5c9.1,0 17.6,-2.8 24.6,-7.5" style="fill:none;stroke:#2b292d;stroke-width:3px;"/><circle cx="1182" cy="72.3" r="17.7" style="fill:#f36b7f;"/><path d="M1175,64.1l14.1,12.2" style="fill:none;stroke:#2b292d;stroke-width:3px;"/><circle cx="1278.5" cy="72.3" r="17.7" style="fill:#f36b7f;"/><path d="M1285.5,64.1l-14.1,12.2" style="fill:none;stroke:#2b292d;stroke-width:3px;"/></g><path d="M1207.31,68.703c1.601,-1.267 3.93,-0.996 5.197,0.605c1.267,1.602 0.996,3.931 -0.606,5.198c-1.601,1.267 -3.93,0.996 -5.197,-0.606c-1.267,-1.601 -0.996,-3.93 0.606,-5.197Z" style="fill:#2b292d;"/><path d="M1247.95,69.295c1.267,-1.601 3.596,-1.873 5.198,-0.606c1.601,1.267 1.873,3.596 0.605,5.198c-1.267,1.601 -3.596,1.873 -5.197,0.605c-1.601,-1.267 -1.873,-3.596 -0.606,-5.197Z" style="fill:#2b292d;"/><path d="M1230.2,67.9l2.3,19.7l-7.5,0" style="fill:none;stroke:#2b292d;stroke-width:3px;"/><path d="M1230.2,14.7l0.7,4.9c3,20.2 20,35.5 40.5,36.3c0,-22.8 -18.4,-41.2 -41.2,-41.2Z" style="fill:#f8cf61;fill-rule:nonzero;"/><path d="M1230.2,14.7l-0.7,4.9c-3,20.2 -20,35.5 -40.4,36.3c0,-22.8 18.4,-41.2 41.1,-41.2Z" style="fill:#f8cf61;fill-rule:nonzero;"/><path d="M1244.3,99.2c0,7.8 -6.3,14.1 -14.1,14.1c-7.8,0 -14.1,-6.3 -14.1,-14.1" style="fill:#fcf0e3;fill-rule:nonzero;"/><path d="M1512.6,860.1l-323.9,-458.9l143.2,-102.4l334.6,464.3l-153.9,97Z" style="fill:#3040c4;fill-rule:nonzero;"/><g><path d="M874.8,358.3c28.1,-4.5 36,15.9 49.5,27.9c1.7,1.5 3.6,2.7 5.7,3.7c13.8,6.1 29.7,-2.3 33.2,-16.9l3,-12.6c5.3,-21.8 -5.7,-44.4 -26.1,-53.7c-6.6,-3 -13.2,-6.2 -19.2,-9.3c-9.5,-4.9 -24.7,-9.4 -39.4,-11.8l-6.7,72.7Z" style="fill:#f36b7f;fill-rule:nonzero;"/><path d="M953.8,315.5c-11.5,-22 -36.8,-50.2 -41.8,-59.2c-5,-9.1 -23,-0.6 -13.4,19.1c9.6,19.7 37.4,64.2 37.4,64.2l17.8,-24.1Z" style="fill:#f36b7f;fill-rule:nonzero;"/></g><g><path d="M898.3,167.1l0,632.4" style="fill:none;stroke:#f3c6bd;stroke-width:27px;"/><rect x="884.8" y="206.1" width="27" height="65.3" style="fill:#2b292d;"/><path d="M898.3,54.6c20.7,9.4 82,36.7 82,82l0,89.3l-82,0l-82,0l0,-89.3c0,-45.3 61.3,-72.5 82,-82Z" style="fill:#2b292d;fill-rule:nonzero;"/><path d="M883.7,225.9l0,-74.3c0,-8 6.5,-14.6 14.6,-14.6c8,0 14.6,6.5 14.6,14.6l0,74.3" style="fill:none;stroke:#fcf0e3;stroke-width:3px;"/><g><rect x="820.5" y="955.8" width="155.5" height="23.7" style="fill:#2b292d;"/><path d="M974.4,967.7l0,-44.5c0,-24.1 -11.5,-46.7 -31,-60.8c-19.5,-14.1 -31,-36.7 -31,-60.8l0,-52.2l-28.4,0l0,52.2c0,24.1 -11.5,46.7 -31,60.8c-19.5,14.1 -31,36.7 -31,60.8l0,44.5" style="fill:none;stroke:#2b292d;stroke-width:3px;"/><rect x="884.1" y="749.3" width="28.4" height="52.2" style="fill:#2b292d;"/></g></g><g><path d="M874.8,358.3c12.8,0.7 26.5,1.4 34.9,1.2c22.3,-0.5 20.1,26.4 -3.2,26.2c-13.9,-0.1 -25.5,-0.7 -32.5,-1.1c-4.8,-0.3 -9.3,-2.2 -12.8,-5.5l-7.9,-7.2c-6,-5.5 -8.2,-14 -5.7,-21.8c2.5,-7.7 9.1,-13.2 17.1,-14.3l12.4,-1.7l-2.3,24.2" style="fill:#f36b7f;fill-rule:nonzero;"/><path d="M878.1,333.5c12.8,0.7 26.5,1.4 34.9,1.2c22.3,-0.5 20.1,26.4 -3.2,26.2c-13.9,-0.1 -25.5,-0.7 -32.5,-1.1c-4.8,-0.3 -9.3,-2.2 -12.8,-5.5l-7.9,-7.2c-6,-5.5 -8.2,-14 -5.7,-21.8c2.5,-7.7 9.1,-13.2 17.1,-14.3l12.4,-1.7l-2.3,24.2" style="fill:#f36b7f;fill-rule:nonzero;"/><path d="M888.2,306.2c12.8,0.7 17.5,5 25.9,4.8c22.3,-0.5 20.1,26.4 -3.2,26.2c-13.9,-0.1 -25.5,-0.7 -32.5,-1.1c-4.8,-0.3 -9.3,-2.2 -12.8,-5.5l-7.9,-7.2c-6,-5.5 -8.2,-14 -5.7,-21.8c2.5,-7.7 9.4,-14.6 17.4,-15.7l12.1,-0.3l6.7,20.6Z" style="fill:#f36b7f;fill-rule:nonzero;"/><path d="M919.7,381.8c10.2,-9.2 5.4,-18.5 -3.7,-21.5c13.8,-3.7 17.7,-19.4 3.9,-24.6c0.9,-0.4 8.1,-4.1 9.2,-9.2c1.2,-5.7 1.5,-15.9 -18.5,-15.6l-31,-4.6" style="fill:none;stroke:#2b292d;stroke-width:2.22px;"/><path d="M920,335.6l-41.7,-0.9" style="fill:none;stroke:#2b292d;stroke-width:2.22px;"/><path d="M918.1,360.7l-41.7,-0.9" style="fill:none;stroke:#2b292d;stroke-width:2.22px;"/></g><g><path d="M637.5,945.7c-5.5,0 -10.7,1.3 -15.3,3.5c-2.3,1.1 -5.1,0.7 -6.9,-1.1c-8.6,-8.9 -20.6,-14.4 -34,-14.4c-8.9,0 -17.3,2.5 -24.4,6.8c-1.8,1.1 -4.1,1.1 -6,0.1c-2.6,-1.3 -5.5,-2.1 -8.6,-2.1c-8.7,0 -16,5.9 -18,14c-0.7,2.7 -3.1,4.7 -5.9,4.7c-13.2,0 -23.9,10.7 -23.9,23.9l178.2,0c0.1,-19.6 -15.7,-35.4 -35.2,-35.4Z" style="fill:#2b292d;fill-rule:nonzero;"/><path d="M583.7,955.8l0,-415.8" style="fill:none;stroke:#2b292d;stroke-width:3px;"/><path d="M536,558.8l47.8,47.8" style="fill:none;stroke:#2b292d;stroke-width:3px;"/><path d="M583.7,667.8l74.5,-74.5" style="fill:none;stroke:#2b292d;stroke-width:3px;"/><path d="M583.7,812.3l98.4,-98.4" style="fill:none;stroke:#2b292d;stroke-width:3px;"/><path d="M583.7,769l-82.4,-82.5" style="fill:none;stroke:#2b292d;stroke-width:3px;"/><circle cx="583.7" cy="540" r="18.8" style="fill:#82b5a5;"/><circle cx="536" cy="558.8" r="18.8" style="fill:#82b5a5;"/><circle cx="658.2" cy="593.3" r="22.5" style="fill:#82b5a5;"/><circle cx="682.1" cy="713.9" r="26.8" style="fill:#82b5a5;"/><circle cx="501.3" cy="687.1" r="26.8" style="fill:#82b5a5;"/></g><g><path d="M176.4,829.6l10.7,152.9" style="fill:none;stroke:#2b292d;stroke-width:3px;"/><g><path d="M214,747.1c-5.7,-0.8 -10.9,3.2 -11.6,8.9c0.8,-5.7 -3.2,-10.9 -8.9,-11.6c-5.7,-0.8 -10.9,3.2 -11.6,8.9l-7.1,52l-14.3,-50.5c-1.5,-5.5 -7.3,-8.7 -12.8,-7.2c-5.5,1.5 -8.7,7.3 -7.2,12.8c-1.5,-5.5 -7.3,-8.7 -12.8,-7.2c-5.5,1.5 -8.7,7.3 -7.2,12.8l1.9,6.7l12.5,44.9c4.6,16.4 18.3,27.7 34.1,30l0,0.1c3,0.4 5.9,0.5 8.7,0.2c2.9,-0.2 5.7,-0.7 8.6,-1.5l0,-0.1c15.3,-4.5 27.3,-17.7 29.5,-34.5l6.2,-46.2l0.9,-6.8c0.8,-5.7 -3.2,-10.9 -8.9,-11.7Z" style="fill:#9fbfff;fill-rule:nonzero;"/><path d="M140.3,759.5l10.9,39.3" style="fill:none;stroke:#3f233f;stroke-width:3px;stroke-linejoin:miter;"/><path d="M202.5,755.2l-5.4,40.4" style="fill:none;stroke:#3f233f;stroke-width:3px;stroke-linejoin:miter;"/><path d="M174.7,805.3l3,42.5" style="fill:none;stroke:#3f233f;stroke-width:3px;stroke-linejoin:miter;"/></g></g><g><path d="M337.8,888.3l-22.1,92.7" style="fill:none;stroke:#2b292d;stroke-width:3px;"/><g><path d="M389.3,830.4c-4.9,-1.2 -9.9,1.9 -11,6.8c1.2,-4.9 -1.9,-9.9 -6.8,-11c-4.9,-1.2 -9.9,1.9 -11,6.8c1.2,-4.9 -1.9,-9.9 -6.8,-11c-4.9,-1.2 -9.9,1.9 -11,6.8c1.2,-4.9 -1.9,-9.9 -6.8,-11c-4.9,-1.2 -9.9,1.9 -11,6.8c1.2,-4.9 -1.9,-9.9 -6.8,-11c-4.9,-1.2 -9.9,1.9 -11,6.8l-1.4,5.9l-4.9,20.5l-2.6,10.9c-5.9,24.6 9.3,49.4 34,55.2c24.6,5.9 49.4,-9.3 55.2,-34l2.6,-10.9l4.9,-20.5l1.4,-5.9c0.9,-5.1 -2.1,-10 -7,-11.2Z" style="fill:#f8cf61;fill-rule:nonzero;"/><path d="M378.4,836.5l-8.4,35" style="fill:none;stroke:#3f233f;stroke-width:3px;stroke-linejoin:miter;"/><path d="M360.5,832.2l-8.3,35.1" style="fill:none;stroke:#3f233f;stroke-width:3px;stroke-linejoin:miter;"/><path d="M342.7,828l-8.4,35" style="fill:none;stroke:#3f233f;stroke-width:3px;stroke-linejoin:miter;"/><path d="M324.9,823.7l-8.4,35.1" style="fill:none;stroke:#3f233f;stroke-width:3px;stroke-linejoin:miter;"/></g></g><g><path d="M722.9,983.3l12.7,-103.7" style="fill:none;stroke:#2b292d;stroke-width:3px;"/><circle cx="735.6" cy="879.6" r="18.9" style="fill:#f36b7f;"/></g><g><path d="M328.4,656.7l11.9,0c7.3,0 12.1,7.7 8.8,14.3l-14.8,29.5l-14.7,-29.5c-3.3,-6.6 1.5,-14.3 8.8,-14.3Z" style="fill:#fcf0e3;fill-rule:nonzero;"/><path d="M378.2,694.6l0,11.9c0,7.3 -7.7,12.1 -14.3,8.8l-29.5,-14.8l29.5,-14.8c6.6,-3.2 14.3,1.6 14.3,8.9Z" style="fill:#fcf0e3;fill-rule:nonzero;"/></g><g><path d="M374.2,966.5l6.8,14.5" style="fill:none;stroke:#2b292d;stroke-width:3px;"/><path d="M404.4,966.5l-6.9,14.5" style="fill:none;stroke:#2b292d;stroke-width:3px;"/><path d="M389.3,963.3l0,17.7" style="fill:none;stroke:#2b292d;stroke-width:3px;"/></g><g><path d="M1026.9,966.5l6.9,14.5" style="fill:none;stroke:#2b292d;stroke-width:3px;"/><path d="M1057.1,966.5l-6.8,14.5" style="fill:none;stroke:#2b292d;stroke-width:3px;"/><path d="M1042,963.3l0,17.7" style="fill:none;stroke:#2b292d;stroke-width:3px;"/></g><g><path d="M1490.5,966.5l6.8,14.5" style="fill:none;stroke:#2b292d;stroke-width:3px;"/><path d="M1520.6,966.5l-6.8,14.5" style="fill:none;stroke:#2b292d;stroke-width:3px;"/><path d="M1505.5,963.3l0,17.7" style="fill:none;stroke:#2b292d;stroke-width:3px;"/></g><path d="M1188.7,240.5l97.2,-8l12,80.3l-109.2,9.7l0,-82Z" style="fill:#3040c4;fill-rule:nonzero;"/><path d="M1206.2,256.6l37.1,22.9l32.1,-28.3" style="fill:none;stroke:#fcf0e3;stroke-width:3px;"/><path d="M1292.2,547.8l-38.1,-53.9" style="fill:none;stroke:#2b292d;stroke-width:2.36px;"/><path d="M1281.9,593.2l-8.8,-24.4" style="fill:none;stroke:#2b292d;stroke-width:2.36px;"/><path d="M1497.3,630.6l112.7,54.1" style="fill:none;stroke:#2b292d;stroke-width:2.36px;"/><path d="M1369.7,657.6l-21.6,-82.9" style="fill:none;stroke:#2b292d;stroke-width:2.36px;"/><path d="M1415,533.6l56.8,28.4" style="fill:none;stroke:#2b292d;stroke-width:2.36px;"/><path d="M1428.9,262.5l4.7,-23.6" style="fill:none;stroke:#2b292d;stroke-width:2.36px;"/><path d="M1076.9,328.8l-19.9,-4.8l14.9,-4.6" style="fill:none;stroke:#2b292d;stroke-width:2.36px;"/><g><circle cx="1285.3" cy="176.4" r="33.6" style="fill:#f8cf61;"/><circle cx="1302.5" cy="238.7" r="37.8" style="fill:#f8cf61;"/><circle cx="1320.6" cy="309" r="42.1" style="fill:#f8cf61;"/><path d="M1327.1,267.4l-32.3,8.3" style="fill:none;stroke:#2b292d;stroke-width:3px;"/><path d="M1288.2,142.8l-21.3,5.2" style="fill:none;stroke:#2b292d;stroke-width:3px;"/><path d="M1307.9,201.3l-29.2,8.1" style="fill:none;stroke:#2b292d;stroke-width:3px;"/></g></svg>