<?xml version="1.0" encoding="utf-8"?>
<!-- Generator: Adobe Illustrator 23.0.0, SVG Export Plug-In . SVG Version: 6.00 Build 0)  -->
<svg version="1.1" id="Layer_6" xmlns="http://www.w3.org/2000/svg" xmlns:xlink="http://www.w3.org/1999/xlink" x="0px" y="0px" viewBox="0 0 1920 1080" style="enable-background:new 0 0 1920 1080;" xml:space="preserve">

<rect width="1920" height="1080" style="fill:#F3C6BD;"/>
<polygon points="1564.5,335.1 1495.7,335.1 1449.4,424.7 1518.2,424.7 " style="fill:#F36B7F;"/>
<g>
	<rect x="149.9" y="979.5" width="1674.4" height="3" style="fill:#3F233F;"/>
</g>
<g>
	<polygon points="1693,678.7 1613.5,884.8 1097.5,884.8 1177,678.7 	" style="fill:none;stroke:#2B292D;stroke-width:3;stroke-linejoin:round;stroke-miterlimit:10;"/>
	<line x1="1097.5" y1="884.8" x2="974.9" y2="884.8" style="fill:none;stroke:#2B292D;stroke-width:3;stroke-linejoin:round;stroke-miterlimit:10;"/>
	<line x1="1118.7" y1="979.5" x2="1097.5" y2="884.8" style="fill:none;stroke:#2B292D;stroke-width:3;stroke-linejoin:round;stroke-miterlimit:10;"/>
	<line x1="953.8" y1="979.5" x2="974.9" y2="884.8" style="fill:none;stroke:#2B292D;stroke-width:3;stroke-linejoin:round;stroke-miterlimit:10;"/>
	<line x1="1633.7" y1="979.5" x2="1612.6" y2="884.8" style="fill:none;stroke:#2B292D;stroke-width:3;stroke-linejoin:round;stroke-miterlimit:10;"/>
	<line x1="1468.8" y1="979.5" x2="1490" y2="884.8" style="fill:none;stroke:#2B292D;stroke-width:3;stroke-linejoin:round;stroke-miterlimit:10;"/>
</g>
<path d="M1534.2,170.9c-4.1-18.1-10.4-36.4-13.1-43c-5.4-13.3-10.9-25-14.9-31.3c-3-4.6-6.1-9.5-9.4-14.5
	c-18.2-27.6-36.9-32.9-76.6-32.9h-198.1c-52.5,0-113.9,30.8-130.4,74.4s-9.1,71,13.9,112l95.1,18.7l14-83.5l204.5-51.8
	c0.3,0.4,0.6,0.9,0.9,1.4c-8.7,13.2-0.6,33.8,14,38.8c2.2,1.1,4.9,1.6,8.3,1.6c7.5,0,12.4-2.6,15.2-6.6
	c-6.4,14.3-22.5,31.2-17.9,41.6c7.5,17,43.1-11.1,55.1-30c2-3.1,2.8-6.4,2.9-9.6c2,8,4.5,17.5,7.7,26.5
	c5.8,16.7,13.7,31.7,23.9,31.7C1540.9,214.2,1539.2,192.7,1534.2,170.9z" style="fill:#F36B7F;"/>
<line x1="1214.7" y1="170.9" x2="1163.3" y2="164.5" style="fill:none;stroke:#2B292D;stroke-width:3;stroke-linejoin:round;stroke-miterlimit:10;"/>
<path d="M1087.6,247.5L1246.9,531l67.9-49.6l-28.6,235.9h255.6l47.5-122.7L1720,717.3l63-130.5l-66.3-68.2
	c-42.2-51.8-105.4-98-172.1-101.8L1408.3,385c-50.7-11.8-94.3-44-120.6-89l-73-125.1L1087.6,247.5z" style="fill:#FCF0E3;"/>
<polygon points="1448.3,677.2 1557.2,677.2 1541.9,717.3 1448.3,717.3 " style="fill:#2B292D;"/>
<g>
	<polygon points="1446.4,677.2 1235.9,618.7 1235.9,360 1446.4,418.6 	" style="fill:#3040C4;"/>
	<g>
		<g>
			<polygon id="XMLID_14_" points="1446.4,677.2 1656.9,618.7 1656.9,360 1446.4,418.6 			" style="fill:#3040C4;"/>
		</g>
	</g>
	<line x1="1446.4" y1="418.6" x2="1446.4" y2="677.2" style="fill:none;stroke:#FCF0E3;stroke-width:3;stroke-linejoin:round;stroke-miterlimit:10;"/>
</g>
<path d="M1541.9,717.3l-34.4,91.2c-17.5,45.1-60.9,74.9-109.3,74.9h-147.7l-10.1-166.1L1541.9,717.3L1541.9,717.3z" style="fill:#F3C6BD;"/>
<g>
	<g>
		<path d="M716.3,584.7L716.3,584.7c-36.4,22.9-82.8,16.7-111.6-15l-68.8-71.3c-21.3-23.4-55.7-28-82.6-11.1l0,0
			l100.5,190l91.5,59.1l-47.4,24.3l31.2,59.1l166.8-88L716.3,584.7z" style="fill:#FCF0E3;"/>
		<path d="M717,671.7c0.1,18.8-15,34.1-33.7,34.2s-34.1-15-34.2-33.7c-0.1-18.8,33.4-76.4,33.4-76.4
			S716.8,652.9,717,671.7z" style="fill:none;stroke:#F3C6BD;stroke-width:3;stroke-linejoin:round;stroke-miterlimit:10;"/>
		<polygon points="1075.1,590.1 792.3,736.7 695.3,546.9 874.7,447.2 		" style="fill:#2B292D;"/>
	</g>
	<path d="M773.3,792.3L773.3,792.3c3.2,42.9-24,81-65.4,91.6l-95.2,27.5c-30.7,7.9-50.8,36.1-48.5,67.9l0,0l215,0.1
		l95.1-53.2l-0.7,53.3h66.8l0.2-186.5L773.3,792.3z" style="fill:#FCF0E3;"/>
	<path d="M767.3,827.5l57,32.5c17.2,9.8,23.2,31.8,13.4,49l-0.2,0.3c-9.8,17.2-31.8,23.2-49,13.4l0,0
		c-10.7-6.1-17.5-17.2-18.1-29.5L767.3,827.5z" style="fill:none;stroke:#F3C6BD;stroke-width:3;stroke-linejoin:round;stroke-miterlimit:10;"/>
	<g>
		<g>
			<path id="XMLID_10_" d="M1128.8,852.5L945.4,721.2v71.7H718.1l7.1-290.3c1-41.8,25.1-79.5,62.5-98.2
				c37.4-18.6,82-15,116,9.3L1290.4,691l94.8,192.3h-160.1C1190.6,883.4,1156.9,872.6,1128.8,852.5z" style="fill:#D1A1A0;"/>
		</g>
		<g>
			<defs>
				<path id="SVGID_1_" d="M1128.8,852.5L945.4,721.2v71.7H718.1l7.1-290.3c1-41.8,25.1-79.5,62.5-98.2c37.4-18.6,82-15,116,9.3
					L1290.4,691l94.8,192.3h-160.1C1190.6,883.4,1156.9,872.6,1128.8,852.5z"/>
			</defs>
			<clipPath id="SVGID_2_">
				<use xlink:href="#SVGID_1_" style="overflow:visible;"/>
			</clipPath>
			<g style="clip-path:url(#SVGID_2_);">
				<path d="M1161.1,767.5L1161.1,767.5c-4.9-4.9-13-4.9-17.9,0c4.9-4.9,4.9-13,0-17.9l0,0c-4.9-4.9-13-4.9-17.9,0
					c4.9-4.9,4.9-13,0-17.9l0,0c-4.9-4.9-13-4.9-17.9,0c4.9-4.9,4.9-13,0-17.9l0,0c-4.9-4.9-13-4.9-17.9,0c4.9-4.9,4.9-13,0-17.9
					l0,0c-4.9-4.9-13-4.9-17.9,0l-6,6l-20.5,20.5l-11,11c-24.7,24.7-24.7,64.8,0,89.5l0,0c24.7,24.7,64.8,24.7,89.5,0l11-11
					l20.5-20.5l6-6C1166,780.5,1166,772.4,1161.1,767.5z" style="fill:#F8CF61;"/>
				<line x1="1143.9" y1="766.8" x2="1108.7" y2="802" style="fill:none;stroke:#3F233F;stroke-width:3;stroke-miterlimit:10;"/>
				<line x1="1125.9" y1="748.9" x2="1090.8" y2="784.1" style="fill:none;stroke:#3F233F;stroke-width:3;stroke-miterlimit:10;"/>
				<line x1="1108" y1="731" x2="1072.9" y2="766.2" style="fill:none;stroke:#3F233F;stroke-width:3;stroke-miterlimit:10;"/>
				<line x1="1090.1" y1="713.1" x2="1054.9" y2="748.2" style="fill:none;stroke:#3F233F;stroke-width:3;stroke-miterlimit:10;"/>
			</g>
		</g>
		<g>
			<defs>
				<path id="SVGID_3_" d="M1128.8,852.5L945.4,721.2v71.7H718.1l7.1-290.3c1-41.8,25.1-79.5,62.5-98.2c37.4-18.6,82-15,116,9.3
					L1290.4,691l94.8,192.3h-160.1C1190.6,883.4,1156.9,872.6,1128.8,852.5z"/>
			</defs>
			<clipPath id="SVGID_4_">
				<use xlink:href="#SVGID_3_" style="overflow:visible;"/>
			</clipPath>
			<g style="clip-path:url(#SVGID_4_);">
				<path d="M811.7,655.3L811.7,655.3c0,7,5.7,12.7,12.7,12.7c-7,0-12.7,5.7-12.7,12.7l0,0c0,7,5.7,12.7,12.7,12.7
					c-7,0-12.7,5.7-12.7,12.7l0,0c0,7,5.7,12.7,12.7,12.7c-7,0-12.7,5.7-12.7,12.7l0,0c0,7,5.7,12.7,12.7,12.7
					c-7,0-12.7,5.7-12.7,12.7l0,0c0,7,5.7,12.7,12.7,12.7h8.4h29h15.5c35,0,63.3-28.3,63.3-63.3l0,0c0-35-28.3-63.3-63.3-63.3h-15.5
					h-29h-8.4C817.3,642.7,811.7,648.3,811.7,655.3z" style="fill:#F8CF61;"/>
				<line x1="823.3" y1="668" x2="873.1" y2="668" style="fill:none;stroke:#3F233F;stroke-width:3;stroke-miterlimit:10;"/>
				<line x1="823.3" y1="693.3" x2="873.1" y2="693.3" style="fill:none;stroke:#3F233F;stroke-width:3;stroke-miterlimit:10;"/>
				<line x1="823.3" y1="718.6" x2="873.1" y2="718.6" style="fill:none;stroke:#3F233F;stroke-width:3;stroke-miterlimit:10;"/>
				<line x1="823.3" y1="744" x2="873.1" y2="744" style="fill:none;stroke:#3F233F;stroke-width:3;stroke-miterlimit:10;"/>
			</g>
		</g>
		<g>
			<defs>
				<path id="SVGID_5_" d="M1128.8,852.5L945.4,721.2v71.7H718.1l7.1-290.3c1-41.8,25.1-79.5,62.5-98.2c37.4-18.6,82-15,116,9.3
					L1290.4,691l94.8,192.3h-160.1C1190.6,883.4,1156.9,872.6,1128.8,852.5z"/>
			</defs>
			<clipPath id="SVGID_6_">
				<use xlink:href="#SVGID_5_" style="overflow:visible;"/>
			</clipPath>
			<g style="clip-path:url(#SVGID_6_);">
				<path d="M1308.7,683.3L1308.7,683.3c-4.9,4.9-4.9,13,0,17.9c-4.9-4.9-13-4.9-17.9,0l0,0c-4.9,4.9-4.9,13,0,17.9
					c-4.9-4.9-13-4.9-17.9,0l0,0c-4.9,4.9-4.9,13,0,17.9c-4.9-4.9-13-4.9-17.9,0l0,0c-4.9,4.9-4.9,13,0,17.9c-4.9-4.9-13-4.9-17.9,0
					l0,0c-4.9,4.9-4.9,13,0,17.9l6,6l20.5,20.5l11,11c24.7,24.7,64.8,24.7,89.5,0l0,0c24.7-24.7,24.7-64.8,0-89.5l-11-11l-20.5-20.5
					l-6-6C1321.7,678.3,1313.7,678.3,1308.7,683.3z" style="fill:#F8CF61;"/>
				<line x1="1308" y1="700.5" x2="1343.2" y2="735.7" style="fill:none;stroke:#3F233F;stroke-width:3;stroke-miterlimit:10;"/>
				<line x1="1290.1" y1="718.4" x2="1325.3" y2="753.6" style="fill:none;stroke:#3F233F;stroke-width:3;stroke-miterlimit:10;"/>
				<line x1="1272.2" y1="736.3" x2="1307.4" y2="771.5" style="fill:none;stroke:#3F233F;stroke-width:3;stroke-miterlimit:10;"/>
				<line x1="1254.3" y1="754.2" x2="1289.5" y2="789.4" style="fill:none;stroke:#3F233F;stroke-width:3;stroke-miterlimit:10;"/>
			</g>
		</g>
		<g>
			<defs>
				<path id="SVGID_7_" d="M1128.8,852.5L945.4,721.2v71.7H718.1l7.1-290.3c1-41.8,25.1-79.5,62.5-98.2c37.4-18.6,82-15,116,9.3
					L1290.4,691l94.8,192.3h-160.1C1190.6,883.4,1156.9,872.6,1128.8,852.5z"/>
			</defs>
			<clipPath id="SVGID_8_">
				<use xlink:href="#SVGID_7_" style="overflow:visible;"/>
			</clipPath>
			<g style="clip-path:url(#SVGID_8_);">
				<path d="M852.7,395.9L852.7,395.9c-7,0-12.7,5.7-12.7,12.7c0-7-5.7-12.7-12.7-12.7l0,0c-7,0-12.7,5.7-12.7,12.7
					c0-7-5.7-12.7-12.7-12.7l0,0c-7,0-12.7,5.7-12.7,12.7c0-7-5.7-12.7-12.7-12.7l0,0c-7,0-12.7,5.7-12.7,12.7
					c0-7-5.7-12.7-12.7-12.7l0,0c-7,0-12.7,5.7-12.7,12.7v8.4v29v15.5c0,35,28.3,63.3,63.3,63.3l0,0c35,0,63.3-28.3,63.3-63.3V446
					v-29v-8.4C865.4,401.5,859.7,395.9,852.7,395.9z" style="fill:#F8CF61;"/>
				<line x1="840" y1="407.5" x2="840" y2="457.3" style="fill:none;stroke:#3F233F;stroke-width:3;stroke-miterlimit:10;"/>
				<line x1="814.7" y1="407.5" x2="814.7" y2="457.3" style="fill:none;stroke:#3F233F;stroke-width:3;stroke-miterlimit:10;"/>
				<line x1="789.4" y1="407.5" x2="789.4" y2="457.3" style="fill:none;stroke:#3F233F;stroke-width:3;stroke-miterlimit:10;"/>
				<line x1="764.1" y1="407.5" x2="764.1" y2="457.3" style="fill:none;stroke:#3F233F;stroke-width:3;stroke-miterlimit:10;"/>
			</g>
		</g>
		<g>
			<defs>
				<path id="SVGID_9_" d="M1128.8,852.5L945.4,721.2v71.7H718.1l7.1-290.3c1-41.8,25.1-79.5,62.5-98.2c37.4-18.6,82-15,116,9.3
					L1290.4,691l94.8,192.3h-160.1C1190.6,883.4,1156.9,872.6,1128.8,852.5z"/>
			</defs>
			<clipPath id="SVGID_10_">
				<use xlink:href="#SVGID_9_" style="overflow:visible;"/>
			</clipPath>
			<g style="clip-path:url(#SVGID_10_);">
				<path d="M1095.7,900L1095.7,900c-7,0-12.7,5.7-12.7,12.7c0-7-5.7-12.7-12.7-12.7l0,0c-7,0-12.7,5.7-12.7,12.7
					c0-7-5.7-12.7-12.7-12.7l0,0c-7,0-12.7,5.7-12.7,12.7c0-7-5.7-12.7-12.7-12.7l0,0c-7,0-12.7,5.7-12.7,12.7
					c0-7-5.7-12.7-12.7-12.7l0,0c-7,0-12.7,5.7-12.7,12.7v8.4v29v15.5c0,35,28.3,63.3,63.3,63.3l0,0c35,0,63.3-28.3,63.3-63.3v-15.5
					v-29v-8.4C1108.4,905.6,1102.7,900,1095.7,900z" style="fill:#F8CF61;"/>
				<line x1="1083.1" y1="911.6" x2="1083.1" y2="961.4" style="fill:none;stroke:#3F233F;stroke-width:3;stroke-miterlimit:10;"/>
				<line x1="1057.7" y1="911.6" x2="1057.7" y2="961.4" style="fill:none;stroke:#3F233F;stroke-width:3;stroke-miterlimit:10;"/>
				<line x1="1032.4" y1="911.6" x2="1032.4" y2="961.4" style="fill:none;stroke:#3F233F;stroke-width:3;stroke-miterlimit:10;"/>
				<line x1="1007.1" y1="911.6" x2="1007.1" y2="961.4" style="fill:none;stroke:#3F233F;stroke-width:3;stroke-miterlimit:10;"/>
			</g>
		</g>
		<g>
			<defs>
				<path id="SVGID_11_" d="M1128.8,852.5L945.4,721.2v71.7H718.1l7.1-290.3c1-41.8,25.1-79.5,62.5-98.2c37.4-18.6,82-15,116,9.3
					L1290.4,691l94.8,192.3h-160.1C1190.6,883.4,1156.9,872.6,1128.8,852.5z"/>
			</defs>
			<clipPath id="SVGID_12_">
				<use xlink:href="#SVGID_11_" style="overflow:visible;"/>
			</clipPath>
			<g style="clip-path:url(#SVGID_12_);">
				<path d="M751.2,611.5L751.2,611.5c-4.9-4.9-13-4.9-17.9,0c4.9-4.9,4.9-13,0-17.9l0,0c-4.9-4.9-13-4.9-17.9,0
					c4.9-4.9,4.9-13,0-17.9l0,0c-4.9-4.9-13-4.9-17.9,0c4.9-4.9,4.9-13,0-17.9l0,0c-4.9-4.9-13-4.9-17.9,0c4.9-4.9,4.9-13,0-17.9
					l0,0c-4.9-4.9-13-4.9-17.9,0l-6,6l-20.5,20.5l-11,11c-24.7,24.7-24.7,64.8,0,89.5l0,0c24.7,24.7,64.8,24.7,89.5,0l11-11
					l20.5-20.5l6-6C756.2,624.4,756.2,616.4,751.2,611.5z" style="fill:#F8CF61;"/>
				<line x1="734" y1="610.8" x2="698.8" y2="646" style="fill:none;stroke:#3F233F;stroke-width:3;stroke-miterlimit:10;"/>
				<line x1="716.1" y1="592.8" x2="680.9" y2="628" style="fill:none;stroke:#3F233F;stroke-width:3;stroke-miterlimit:10;"/>
				<line x1="698.2" y1="574.9" x2="663" y2="610.1" style="fill:none;stroke:#3F233F;stroke-width:3;stroke-miterlimit:10;"/>
				<line x1="680.3" y1="557" x2="645.1" y2="592.2" style="fill:none;stroke:#3F233F;stroke-width:3;stroke-miterlimit:10;"/>
			</g>
		</g>
		<g>
			<defs>
				<path id="SVGID_13_" d="M1128.8,852.5L945.4,721.2v71.7H718.1l7.1-290.3c1-41.8,25.1-79.5,62.5-98.2c37.4-18.6,82-15,116,9.3
					L1290.4,691l94.8,192.3h-160.1C1190.6,883.4,1156.9,872.6,1128.8,852.5z"/>
			</defs>
			<clipPath id="SVGID_14_">
				<use xlink:href="#SVGID_13_" style="overflow:visible;"/>
			</clipPath>
			<g style="clip-path:url(#SVGID_14_);">
				<path d="M1112.7,568.1L1112.7,568.1c-4.9-4.9-13-4.9-17.9,0c4.9-4.9,4.9-13,0-17.9l0,0c-4.9-4.9-13-4.9-17.9,0
					c4.9-4.9,4.9-13,0-17.9l0,0c-4.9-4.9-13-4.9-17.9,0c4.9-4.9,4.9-13,0-17.9l0,0c-4.9-4.9-13-4.9-17.9,0c4.9-4.9,4.9-13,0-17.9
					l0,0c-4.9-4.9-13-4.9-17.9,0l-6,6L996.7,523l-11,11c-24.7,24.7-24.7,64.8,0,89.5l0,0c24.7,24.7,64.8,24.7,89.5,0l11-11
					l20.5-20.5l6-6C1117.7,581.1,1117.7,573.1,1112.7,568.1z" style="fill:#F8CF61;"/>
				<line x1="1095.5" y1="567.4" x2="1060.3" y2="602.6" style="fill:none;stroke:#3F233F;stroke-width:3;stroke-miterlimit:10;"/>
				<line x1="1077.6" y1="549.5" x2="1042.4" y2="584.7" style="fill:none;stroke:#3F233F;stroke-width:3;stroke-miterlimit:10;"/>
				<line x1="1059.7" y1="531.6" x2="1024.5" y2="566.8" style="fill:none;stroke:#3F233F;stroke-width:3;stroke-miterlimit:10;"/>
				<line x1="1041.8" y1="513.7" x2="1006.6" y2="548.9" style="fill:none;stroke:#3F233F;stroke-width:3;stroke-miterlimit:10;"/>
			</g>
		</g>
	</g>
</g>
<path d="M1118.2,567.5c0,0-59.3-42.6-90-64.4c41.8,29.9,33.3,86.5,79.9,145.5c35.2,44.6,76.4,65.7,103.6,98.6
	c47.9,58,69.6,133.3,117,136.1h66.5L1118.2,567.5z" style="fill:#2B292D;"/>
<g>
	<g>
		<path id="XMLID_9_" d="M916.9,423.2l187.5-102.3c50.1-24.8,110.8-9.1,142.6,36.8l282.1,393.2l-8.6,28.9
			c-18.2,61.5-74.7,103.6-138.8,103.6l0,0c-25.5,0-49.5-11.3-65.8-30.5c-1.8-2.1-3.5-4.4-5.1-6.7l-192.7-278.6l-68.2-48.9
			L916.9,423.2z" style="fill:#F3C6BD;"/>
	</g>
	<g>
		<defs>
			<path id="SVGID_15_" d="M916.9,423.2l187.5-102.3c50.1-24.8,110.8-9.1,142.6,36.8l282.1,393.2l-8.6,28.9
				c-18.2,61.5-74.7,103.6-138.8,103.6l0,0c-25.5,0-49.5-11.3-65.8-30.5c-1.8-2.1-3.5-4.4-5.1-6.7l-192.7-278.6l-68.2-48.9
				L916.9,423.2z"/>
		</defs>
		<clipPath id="SVGID_16_">
			<use xlink:href="#SVGID_15_" style="overflow:visible;"/>
		</clipPath>
		<g style="clip-path:url(#SVGID_16_);">
			<path d="M1464.7,663L1464.7,663c-3.9-5.8-11.8-7.4-17.6-3.5c5.8-3.9,7.4-11.8,3.5-17.6l0,0
				c-3.9-5.8-11.8-7.4-17.6-3.5c5.8-3.9,7.4-11.8,3.5-17.6l0,0c-3.9-5.8-11.8-7.4-17.6-3.5c5.8-3.9,7.4-11.8,3.5-17.6l0,0
				c-3.9-5.8-11.8-7.4-17.6-3.5c5.8-3.9,7.4-11.8,3.5-17.6l0,0c-3.9-5.8-11.8-7.4-17.6-3.5l-7,4.7l-24.1,16.2l-12.9,8.6
				c-29.1,19.5-36.8,58.8-17.4,87.8l0,0c19.5,29.1,58.8,36.8,87.8,17.4l12.9-8.6l24.1-16.2l7-4.7
				C1467,676.7,1468.6,668.8,1464.7,663z" style="fill:#F8CF61;"/>
			<line x1="1447.9" y1="659" x2="1406.6" y2="686.7" style="fill:none;stroke:#3F233F;stroke-width:3;stroke-miterlimit:10;"/>
			<line x1="1433.9" y1="637.9" x2="1392.5" y2="665.6" style="fill:none;stroke:#3F233F;stroke-width:3;stroke-miterlimit:10;"/>
			<line x1="1419.8" y1="616.9" x2="1378.4" y2="644.6" style="fill:none;stroke:#3F233F;stroke-width:3;stroke-miterlimit:10;"/>
			<line x1="1405.7" y1="595.9" x2="1364.3" y2="623.5" style="fill:none;stroke:#3F233F;stroke-width:3;stroke-miterlimit:10;"/>
		</g>
	</g>
	<g>
		<defs>
			<path id="SVGID_17_" d="M916.9,423.2l187.5-102.3c50.1-24.8,110.8-9.1,142.6,36.8l282.1,393.2l-8.6,28.9
				c-18.2,61.5-74.7,103.6-138.8,103.6l0,0c-25.5,0-49.5-11.3-65.8-30.5c-1.8-2.1-3.5-4.4-5.1-6.7l-192.7-278.6l-68.2-48.9
				L916.9,423.2z"/>
		</defs>
		<clipPath id="SVGID_18_">
			<use xlink:href="#SVGID_17_" style="overflow:visible;"/>
		</clipPath>
		<g style="clip-path:url(#SVGID_18_);">
			<path d="M1232.1,469.7L1232.1,469.7c-5.5,4.3-6.4,12.3-2.1,17.8c-4.3-5.5-12.3-6.4-17.8-2.1l0,0
				c-5.5,4.3-6.4,12.3-2.1,17.8c-4.3-5.5-12.3-6.4-17.8-2.1l0,0c-5.5,4.3-6.4,12.3-2.1,17.8c-4.3-5.5-12.3-6.4-17.8-2.1l0,0
				c-5.5,4.3-6.4,12.3-2.1,17.8c-4.3-5.5-12.3-6.4-17.8-2.1l0,0c-5.5,4.3-6.4,12.3-2.1,17.8l5.2,6.6l18,22.8l9.6,12.2
				c21.6,27.5,61.5,32.2,88.9,10.5l0,0c27.5-21.6,32.2-61.5,10.5-88.9l-9.6-12.2l-18-22.8l-5.2-6.6
				C1245.6,466.3,1237.6,465.3,1232.1,469.7z" style="fill:#F8CF61;"/>
			<line x1="1229.4" y1="486.6" x2="1260.2" y2="525.7" style="fill:none;stroke:#3F233F;stroke-width:3;stroke-miterlimit:10;"/>
			<line x1="1209.5" y1="502.3" x2="1240.3" y2="541.4" style="fill:none;stroke:#3F233F;stroke-width:3;stroke-miterlimit:10;"/>
			<line x1="1189.6" y1="518" x2="1220.4" y2="557.1" style="fill:none;stroke:#3F233F;stroke-width:3;stroke-miterlimit:10;"/>
			<line x1="1169.7" y1="533.7" x2="1200.5" y2="572.8" style="fill:none;stroke:#3F233F;stroke-width:3;stroke-miterlimit:10;"/>
		</g>
	</g>
	<g>
		<defs>
			<path id="SVGID_19_" d="M916.9,423.2l187.5-102.3c50.1-24.8,110.8-9.1,142.6,36.8l282.1,393.2l-8.6,28.9
				c-18.2,61.5-74.7,103.6-138.8,103.6l0,0c-25.5,0-49.5-11.3-65.8-30.5c-1.8-2.1-3.5-4.4-5.1-6.7l-192.7-278.6l-68.2-48.9
				L916.9,423.2z"/>
		</defs>
		<clipPath id="SVGID_20_">
			<use xlink:href="#SVGID_19_" style="overflow:visible;"/>
		</clipPath>
		<g style="clip-path:url(#SVGID_20_);">
			<path d="M1142.6,280.8L1142.6,280.8c-6.8,1.5-11.1,8.3-9.6,15.1c-1.5-6.8-8.3-11.1-15.1-9.6l0,0
				c-6.8,1.5-11.1,8.3-9.6,15.1c-1.5-6.8-8.3-11.1-15.1-9.6l0,0c-6.8,1.5-11.1,8.3-9.6,15.1c-1.5-6.8-8.3-11.1-15.1-9.6l0,0
				c-6.8,1.5-11.1,8.3-9.6,15.1c-1.5-6.8-8.3-11.1-15.1-9.6l0,0c-6.8,1.5-11.1,8.3-9.6,15.1l1.8,8.2l6.3,28.3l3.4,15.1
				c7.6,34.1,41.4,55.6,75.6,48l0,0c34.1-7.6,55.6-41.4,48-75.6l-3.4-15.1l-6.3-28.3l-1.8-8.2
				C1156.2,283.6,1149.4,279.3,1142.6,280.8z" style="fill:#F8CF61;"/>
			<line x1="1132.7" y1="295" x2="1143.6" y2="343.5" style="fill:none;stroke:#3F233F;stroke-width:3;stroke-miterlimit:10;"/>
			<line x1="1108" y1="300.5" x2="1118.9" y2="349.1" style="fill:none;stroke:#3F233F;stroke-width:3;stroke-miterlimit:10;"/>
			<line x1="1083.3" y1="306" x2="1094.1" y2="354.6" style="fill:none;stroke:#3F233F;stroke-width:3;stroke-miterlimit:10;"/>
			<line x1="1058.6" y1="311.5" x2="1069.4" y2="360.1" style="fill:none;stroke:#3F233F;stroke-width:3;stroke-miterlimit:10;"/>
		</g>
	</g>
	<g>
		<defs>
			<path id="SVGID_21_" d="M916.9,423.2l187.5-102.3c50.1-24.8,110.8-9.1,142.6,36.8l282.1,393.2l-8.6,28.9
				c-18.2,61.5-74.7,103.6-138.8,103.6l0,0c-25.5,0-49.5-11.3-65.8-30.5c-1.8-2.1-3.5-4.4-5.1-6.7l-192.7-278.6l-68.2-48.9
				L916.9,423.2z"/>
		</defs>
		<clipPath id="SVGID_22_">
			<use xlink:href="#SVGID_21_" style="overflow:visible;"/>
		</clipPath>
		<g style="clip-path:url(#SVGID_22_);">
			<path d="M1400.8,781.7L1400.8,781.7c-7,0-12.7,5.7-12.7,12.7c0-7-5.7-12.7-12.7-12.7l0,0c-7,0-12.7,5.7-12.7,12.7
				c0-7-5.7-12.7-12.7-12.7l0,0c-7,0-12.7,5.7-12.7,12.7c0-7-5.7-12.7-12.7-12.7l0,0c-7,0-12.7,5.7-12.7,12.7
				c0-7-5.7-12.7-12.7-12.7l0,0c-7,0-12.7,5.7-12.7,12.7v8.4v29v15.5c0,35,28.3,63.3,63.3,63.3l0,0c35,0,63.3-28.3,63.3-63.3v-15.5
				v-29v-8.4C1413.5,787.4,1407.8,781.7,1400.8,781.7z" style="fill:#F8CF61;"/>
			<line x1="1388.2" y1="793.4" x2="1388.2" y2="843.2" style="fill:none;stroke:#3F233F;stroke-width:3;stroke-miterlimit:10;"/>
			<line x1="1362.8" y1="793.4" x2="1362.8" y2="843.2" style="fill:none;stroke:#3F233F;stroke-width:3;stroke-miterlimit:10;"/>
			<line x1="1337.5" y1="793.4" x2="1337.5" y2="843.2" style="fill:none;stroke:#3F233F;stroke-width:3;stroke-miterlimit:10;"/>
			<line x1="1312.2" y1="793.4" x2="1312.2" y2="843.2" style="fill:none;stroke:#3F233F;stroke-width:3;stroke-miterlimit:10;"/>
		</g>
	</g>
	<g>
		<defs>
			<path id="SVGID_23_" d="M916.9,423.2l187.5-102.3c50.1-24.8,110.8-9.1,142.6,36.8l282.1,393.2l-8.6,28.9
				c-18.2,61.5-74.7,103.6-138.8,103.6l0,0c-25.5,0-49.5-11.3-65.8-30.5c-1.8-2.1-3.5-4.4-5.1-6.7l-192.7-278.6l-68.2-48.9
				L916.9,423.2z"/>
		</defs>
		<clipPath id="SVGID_24_">
			<use xlink:href="#SVGID_23_" style="overflow:visible;"/>
		</clipPath>
		<g style="clip-path:url(#SVGID_24_);">
			<path d="M1054.8,507.3L1054.8,507.3c-3.9-5.8-11.7-7.4-17.6-3.5c5.8-3.9,7.4-11.7,3.5-17.6l0,0
				c-3.9-5.8-11.7-7.4-17.6-3.5c5.8-3.9,7.4-11.7,3.5-17.6l0,0c-3.9-5.8-11.7-7.4-17.6-3.5c5.8-3.9,7.4-11.7,3.5-17.6l0,0
				c-3.9-5.8-11.7-7.4-17.6-3.5c5.8-3.9,7.4-11.7,3.5-17.6l0,0c-3.9-5.8-11.7-7.4-17.6-3.5l-7,4.7l-23.8,16l-12.9,8.6
				C908,468,900,507.3,919.4,536.5l0,0c19.3,29.1,58.6,37.1,87.8,17.7l12.9-8.6l24.2-16.1l7-4.7
				C1057.1,521,1058.7,513.1,1054.8,507.3z" style="fill:#F8CF61;"/>
			<line x1="1038.1" y1="503.2" x2="996.6" y2="530.7" style="fill:none;stroke:#3F233F;stroke-width:3;stroke-miterlimit:10;"/>
			<line x1="1024.1" y1="482.1" x2="982.6" y2="509.6" style="fill:none;stroke:#3F233F;stroke-width:3;stroke-miterlimit:10;"/>
			<line x1="1010.1" y1="461" x2="968.6" y2="488.5" style="fill:none;stroke:#3F233F;stroke-width:3;stroke-miterlimit:10;"/>
			<line x1="996" y1="439.9" x2="954.6" y2="467.4" style="fill:none;stroke:#3F233F;stroke-width:3;stroke-miterlimit:10;"/>
		</g>
	</g>
</g>
<g>
	<path d="M1585.9,266.5c-4.8,0-9.2,1.5-12.8,4.1c0.6-3,1-6.2,1-9.4c0-25.2-20.4-45.6-45.6-45.6s-45.6,20.4-45.6,45.6
		c0,3.2,0.3,6.3,1,9.4c-3.6-2.6-8-4.1-12.8-4.1c-12.2,0-22,9.9-22,22s9.9,22,22,22c4.8,0,9.2-1.5,12.8-4.1c-0.2,0.9-0.4,1.9-0.5,2.8
		c-3.7,7.1-5.8,15.1-5.8,23.6c0,28.1,22.8,50.9,50.9,50.9s50.9-22.8,50.9-50.9c0-8.4-2.1-16.4-5.7-23.4c-0.1-1-0.3-2-0.5-3
		c3.6,2.6,8,4.1,12.8,4.1c12.2,0,22-9.9,22-22S1598,266.5,1585.9,266.5z" style="fill:#F36B7F;"/>
	<line x1="1589.4" y1="284" x2="1575" y2="295.4" style="fill:none;stroke:#F3C6BD;stroke-width:3;stroke-linejoin:round;stroke-miterlimit:10;"/>
	<line x1="1467.6" y1="284" x2="1482" y2="295.4" style="fill:none;stroke:#F3C6BD;stroke-width:3;stroke-linejoin:round;stroke-miterlimit:10;"/>
	<g>
		<path d="M1484.8,359c0,0,0.5,0.8,1.4,2.2c0.4,0.7,1.1,1.5,1.8,2.5c0.7,1,1.6,1.9,2.5,3.1c1,1,2.1,2.2,3.3,3.3
			c1.2,1.2,2.6,2.3,4,3.4c0.7,0.5,1.5,1.1,2.3,1.6s1.6,1,2.4,1.5c1.7,1,3.4,1.9,5.1,2.7c0.4,0.2,0.9,0.4,1.3,0.6l1.4,0.5
			c0.9,0.4,1.8,0.7,2.7,0.9c1.8,0.6,3.6,1,5.4,1.4c0.9,0.2,1.8,0.3,2.6,0.4c0.9,0.2,1.7,0.2,2.5,0.3c0.4,0,0.8,0.1,1.2,0.1
			c0.4,0,0.8,0,1.2,0c0.8,0,1.5,0.1,2.3,0.1c2.9,0,5.3-0.2,7-0.5c1.7-0.2,2.6-0.4,2.6-0.4l0.6,2.9c0,0-1,0.2-2.8,0.5
			c-0.9,0.1-2,0.2-3.2,0.3c-1.2,0.1-2.7,0.2-4.2,0.2c-0.8,0-1.6-0.1-2.4-0.1c-0.4,0-0.8,0-1.3-0.1c-0.4,0-0.9-0.1-1.3-0.1
			c-0.9-0.1-1.8-0.1-2.7-0.3c-0.9-0.2-1.8-0.3-2.8-0.5c-1.9-0.4-3.8-0.9-5.7-1.5c-1-0.3-1.9-0.6-2.9-1l-1.4-0.5
			c-0.5-0.2-0.9-0.4-1.4-0.6c-1.9-0.8-3.7-1.8-5.4-2.8c-0.9-0.5-1.7-1.1-2.5-1.6c-0.8-0.6-1.6-1.1-2.4-1.7c-1.5-1.2-3-2.3-4.2-3.6
			c-1.3-1.2-2.4-2.4-3.5-3.5c-1-1.2-1.9-2.2-2.7-3.3c-0.7-1-1.5-2-1.9-2.7c-0.9-1.4-1.4-2.2-1.4-2.2L1484.8,359z" style="fill:#2B292D;"/>
	</g>
	<path d="M1516.4,354.8c0.4-4.3-1.1-8.8-4.5-12.1c-3.3-3.3-7.8-4.8-12.1-4.5" style="fill:none;stroke:#2B292D;stroke-width:3;stroke-linejoin:round;stroke-miterlimit:10;"/>
	<path d="M1483.9,270.6c-0.7-3.3-1-6.6-1-10.1c0.4-25.1,20.5-44.8,45.6-44.8c25.2,0,45.5,20.4,45.5,45.6
		c0,3.2-0.3,6.3-1,9.4l-8-7.8c-6.8-6.7-17.6-6.6-24.4,0.1l0,0c-6.8,6.7-17.7,6.7-24.5,0l0,0c-6.7-6.7-17.6-6.7-24.4-0.1
		L1483.9,270.6z" style="fill:#2B292D;"/>
	<polyline points="1528.5,292.7 1528.5,325 1518.1,320.9 	" style="fill:none;stroke:#2B292D;stroke-width:3;stroke-linejoin:round;stroke-miterlimit:10;"/>
	<circle cx="1502.9" cy="302.8" r="20.1" style="fill:none;stroke:#FCF0E3;stroke-width:3;stroke-linejoin:round;stroke-miterlimit:10;"/>
	<circle cx="1554" cy="302.8" r="20.1" style="fill:none;stroke:#FCF0E3;stroke-width:3;stroke-linejoin:round;stroke-miterlimit:10;"/>
	<line x1="1521.8" y1="295.9" x2="1535.1" y2="295.9" style="fill:none;stroke:#FCF0E3;stroke-width:3;stroke-linejoin:round;stroke-miterlimit:10;"/>
	<line x1="1574.2" y1="302.8" x2="1574.2" y2="269.9" style="fill:none;stroke:#FCF0E3;stroke-width:3;stroke-linejoin:round;stroke-miterlimit:10;"/>
	<line x1="1482.7" y1="302.8" x2="1482.7" y2="269.9" style="fill:none;stroke:#FCF0E3;stroke-width:3;stroke-linejoin:round;stroke-miterlimit:10;"/>
</g>
<circle cx="1554" cy="310.3" r="4.1" style="fill:#2B292D;"/>
<circle cx="1502.9" cy="310.3" r="4.1" style="fill:#2B292D;"/>
<path d="M1541.9,717.3l-36.9,99.5c-15.4,40.9-54.6,68-98.3,68h-24.8" style="fill:none;stroke:#2B292D;stroke-width:3;stroke-linejoin:round;stroke-miterlimit:10;"/>
<g id="XMLID_12_">
	<path d="M915.5,420.5c0,0,51.4-28.1,102.8-56.1c25.7-14,51.4-28.1,70.7-38.6c4.8-2.6,9.2-5,13.2-7.2
		c0.2-0.1,0.5-0.3,0.7-0.4l0.3-0.2l0.2-0.1l0.4-0.2c0.5-0.2,1-0.5,1.5-0.7c1-0.5,1.9-0.9,2.8-1.3c1.8-0.8,3.5-1.5,5-2.1
		c3.1-1.2,5.5-2,7.2-2.5s2.6-0.8,2.6-0.8l0.8,2.9c0,0-0.9,0.3-2.5,0.8s-4,1.3-7,2.4c-3,1.2-6.6,2.6-10.5,4.7s-8.3,4.5-13.2,7.2
		c-19.3,10.5-45,24.5-70.7,38.6C968.4,395,917,423,917,423L915.5,420.5z" style="fill:#FCF0E3;"/>
</g>
<polyline points="945.4,638 945.4,721.2 967.2,663.2 " style="fill:none;stroke:#2B292D;stroke-width:3.6453;stroke-linejoin:round;stroke-miterlimit:10;"/>
<polyline points="1119.7,518.6 1116.7,570.2 1094.7,527.7 " style="fill:none;stroke:#2B292D;stroke-width:3.6453;stroke-linejoin:round;stroke-miterlimit:10;"/>
<path d="M221.7,605v18c0,24,9.5,47,26.5,64l0,0c17,17,26.5,40,26.5,64v68.4" style="fill:none;stroke:#3F233F;stroke-width:3;stroke-miterlimit:10;"/>
<path d="M326.7,662.9l-5.3,5.1c-29.9,29-46.7,69-46.7,110.6v31.8" style="fill:none;stroke:#3F233F;stroke-width:3;stroke-miterlimit:10;"/>
<line x1="179.7" y1="705" x2="277.2" y2="802.5" style="fill:none;stroke:#3F233F;stroke-width:3;stroke-miterlimit:10;"/>
<g>
	<path d="M277,846.8h-5.9c-37.5,0-67.8,30.4-67.8,67.8l0,0c0,37.5,30.4,67.8,67.8,67.8h5.9c37.5,0,67.8-30.4,67.8-67.8
		l0,0C344.8,877.2,314.5,846.8,277,846.8z" style="fill:#3040C4;"/>
</g>
<polygon points="274,846.8 231.5,791.9 316.5,791.9 " style="fill:#3040C4;"/>
<g>
	<path d="M443.6,619.3L443.6,619.3c-5.2-5.2-13.7-5.2-18.9,0c5.2-5.2,5.2-13.7,0-18.9l0,0c-5.2-5.2-13.7-5.2-18.9,0
		c5.2-5.2,5.2-13.7,0-18.9l0,0c-5.2-5.2-13.7-5.2-18.9,0c5.2-5.2,5.2-13.7,0-18.9l0,0c-5.2-5.2-13.7-5.2-18.9,0
		c5.2-5.2,5.2-13.7,0-18.9l0,0c-5.2-5.2-13.7-5.2-18.9,0l-6.3,6.3l-21.6,21.6l-11.6,11.6c-26,26-26,68.3,0,94.3l0,0
		c26,26,68.3,26,94.3,0l11.6-11.6l21.6-21.6l6.3-6.3C448.8,633,448.8,624.5,443.6,619.3z" style="fill:#F36B7F;"/>
	<line x1="425.5" y1="618.6" x2="388.4" y2="655.7" style="fill:none;stroke:#3F233F;stroke-width:3;stroke-miterlimit:10;"/>
	<line x1="406.6" y1="599.7" x2="369.6" y2="636.8" style="fill:none;stroke:#3F233F;stroke-width:3;stroke-miterlimit:10;"/>
	<line x1="387.8" y1="580.9" x2="350.7" y2="617.9" style="fill:none;stroke:#3F233F;stroke-width:3;stroke-miterlimit:10;"/>
	<line x1="368.9" y1="562" x2="331.8" y2="599.1" style="fill:none;stroke:#3F233F;stroke-width:3;stroke-miterlimit:10;"/>
</g>
<g>
	<path d="M142.7,611.9L142.7,611.9c-4,4-4,10.4,0,14.3c-4-4-10.4-4-14.3,0l0,0c-4,4-4,10.4,0,14.3c-4-4-10.4-4-14.3,0
		l0,0c-4,4-4,10.4,0,14.3c-4-4-10.4-4-14.3,0l0,0c-4,4-4,10.4,0,14.3c-4-4-10.4-4-14.3,0l0,0c-4,4-4,10.4,0,14.3l4.8,4.8l16.4,16.4
		l8.8,8.8c19.8,19.8,51.9,19.8,71.7,0l0,0c19.8-19.8,19.8-51.9,0-71.7l-8.8-8.8L162,616.5l-4.8-4.8
		C153.1,607.9,146.7,607.9,142.7,611.9z" style="fill:#F36B7F;"/>
	<line x1="142.2" y1="625.6" x2="170.3" y2="653.8" style="fill:none;stroke:#3F233F;stroke-width:3;stroke-miterlimit:10;"/>
	<line x1="127.8" y1="640" x2="156" y2="668.1" style="fill:none;stroke:#3F233F;stroke-width:3;stroke-miterlimit:10;"/>
	<line x1="113.5" y1="654.3" x2="141.7" y2="682.4" style="fill:none;stroke:#3F233F;stroke-width:3;stroke-miterlimit:10;"/>
	<line x1="99.2" y1="668.6" x2="127.3" y2="696.8" style="fill:none;stroke:#3F233F;stroke-width:3;stroke-miterlimit:10;"/>
</g>
<g>
	<path d="M268.9,504.9L268.9,504.9c-6.5,0-11.8,5.3-11.8,11.8c0-6.5-5.3-11.8-11.8-11.8l0,0c-6.5,0-11.8,5.3-11.8,11.8
		c0-6.5-5.3-11.8-11.8-11.8l0,0c-6.5,0-11.8,5.3-11.8,11.8c0-6.5-5.3-11.8-11.8-11.8l0,0c-6.5,0-11.8,5.3-11.8,11.8
		c0-6.5-5.3-11.8-11.8-11.8l0,0c-6.5,0-11.8,5.3-11.8,11.8v7.9v27.1v14.5c0,32.6,26.4,59.1,59.1,59.1l0,0
		c32.6,0,59.1-26.4,59.1-59.1v-14.5v-27.1v-7.9C280.7,510.2,275.5,504.9,268.9,504.9z" style="fill:#F36B7F;"/>
	<line x1="257.1" y1="515.8" x2="257.1" y2="562.2" style="fill:none;stroke:#3F233F;stroke-width:3;stroke-miterlimit:10;"/>
	<line x1="233.5" y1="515.8" x2="233.5" y2="562.2" style="fill:none;stroke:#3F233F;stroke-width:3;stroke-miterlimit:10;"/>
	<line x1="209.9" y1="515.8" x2="209.9" y2="562.2" style="fill:none;stroke:#3F233F;stroke-width:3;stroke-miterlimit:10;"/>
	<line x1="186.2" y1="515.8" x2="186.2" y2="562.2" style="fill:none;stroke:#3F233F;stroke-width:3;stroke-miterlimit:10;"/>
</g>
<line x1="1491.7" y1="137.7" x2="1498.8" y2="160.1" style="fill:none;stroke:#2B292D;stroke-width:3;stroke-linejoin:round;stroke-miterlimit:10;"/>
<path d="M1832.2,688.8c-1.2-23.3-17.3-53.8-34.1-83.1c-16.8-29.3-38.1-55.8-62.9-78.7l-41.5-38.2
	c-4.3-3.2-15.8-11.4-35.7-24.1c-26-16.6-108.2-42.7-113.3-22.3c-3.1,12.4,19.7,14.9,59,29.9c-37.1-7.2-64.8-9.8-66.5,3.2
	s35.8,20.2,64.5,25.5c-19.6,5-46.5,10.8-46.1,21c0.5,14.7,23.6,10.7,39.2,9.7c34.5-2.4,42.6,24.8,57.5,40.8
	c9.9,10.6,30,12.6,43.5,3.4l13.9,126.3c3.5,31.2,29.9,54.9,61.3,54.9l0,0C1807.6,757.2,1834.2,728.2,1832.2,688.8z" style="fill:#F36B7F;"/>
<line x1="1695.7" y1="576" x2="1710" y2="564.8" style="fill:none;stroke:#2B292D;stroke-width:3;stroke-linejoin:round;stroke-miterlimit:10;"/>
<line x1="1419.1" y1="119" x2="1438.4" y2="142.7" style="fill:none;stroke:#2B292D;stroke-width:3;stroke-linejoin:round;stroke-miterlimit:10;"/>
</svg>
